<svg id="ehfwtl0kjGX1" xmlns="http://www.w3.org/2000/svg" xmlns:xlink="http://www.w3.org/1999/xlink" viewBox="0 0 412.741272 409.05986" shape-rendering="geometricPrecision" text-rendering="geometricPrecision"><defs><radialGradient id="ehfwtl0kjGX4-fill" cx="0" cy="0" r="115.5" spreadMethod="pad" gradientUnits="userSpaceOnUse" gradientTransform="matrix(1 0 0 0.134199 215 381.04273)"/><linearGradient id="ehfwtl0kjGX6-fill" x1="0.000049" y1="0.000033" x2="390.431006" y2="334.655173" spreadMethod="pad" gradientUnits="userSpaceOnUse" gradientTransform="translate(0 0)"><stop id="ehfwtl0kjGX6-fill-0" offset="0%" stop-color="#fff"/><stop id="ehfwtl0kjGX6-fill-1" offset="100%" stop-color="#c3c3c3"/></linearGradient><linearGradient id="ehfwtl0kjGX7-fill" x1="368.120638" y1="312.344851" x2="0.000021" y2="0.000052" spreadMethod="pad" gradientUnits="userSpaceOnUse" gradientTransform="translate(0 0)"><stop id="ehfwtl0kjGX7-fill-0" offset="0%" stop-color="#767676"/><stop id="ehfwtl0kjGX7-fill-1" offset="100%" stop-color="#d4d4d4"/></linearGradient><linearGradient id="ehfwtl0kjGX8-fill" x1="0.000013" y1="0.000063" x2="323.499941" y2="267.724214" spreadMethod="pad" gradientUnits="userSpaceOnUse" gradientTransform="translate(0 0)"><stop id="ehfwtl0kjGX8-fill-0" offset="0%" stop-color="#767676"/><stop id="ehfwtl0kjGX8-fill-1" offset="100%" stop-color="#d4d4d4"/></linearGradient></defs><g transform="translate(-170.94165-270.395203)"><g transform="translate(.000026 0)"><path d="M330,381.04276c0,8.284271-51.487254,15-115,15s-115-6.715729-115-15s51.487254-15,115-15s115,6.715729,115,15Z" transform="matrix(1.789677 0 0 2.32716-7.468306-259.265015)" fill="url(#ehfwtl0kjGX4-fill)"/><rect width="412.741272" height="356.965424" rx="44.155521" ry="44.155521" transform="translate(170.94165 270.395203)" fill="#434343"/><rect width="390.430908" height="334.655151" rx="41.395813" ry="41.395813" transform="translate(182.096786 281.550385)" fill="url(#ehfwtl0kjGX6-fill)"/><rect width="368.120575" height="312.344727" rx="38.636082" ry="38.636082" transform="translate(193.251984 292.705536)" fill="url(#ehfwtl0kjGX7-fill)"/><rect width="323.499939" height="267.724121" rx="33.116642" ry="33.116642" transform="translate(215.562317 315.01593)" fill="url(#ehfwtl0kjGX8-fill)"/><rect width="301.189545" height="245.413696" rx="30.356913" ry="30.356913" transform="translate(226.717499 326.171112)"/><g transform="matrix(-1.115517 0 0-1.115517 796.68158 950.179993)"><path d="M268.15497,339.38992h215.57336c15.07618,0,27.21332,12.13714,27.21332,27.21332c0,22.7867,0,32.7867,0,42.7867h-270v-42.7867c0-15.07618,12.13714-27.21332,27.21332-27.21332Z" fill="#ff0"/><path d="M483.72833,559.38994h-215.57336c-15.07618,0-27.21332-12.13714-27.21332-27.21332c0-22.7867,0-42.7867,0-52.7867h270v52.7867c0,15.07618-12.13714,27.21332-27.21332,27.21332Z" fill="#f00"/><rect width="270" height="70" rx="0" ry="0" transform="translate(240.94165 409.389938)" fill="#ff8500"/></g><path d="M290.22788,348.48144h55.73979l70.3877,137.71741v-137.71741h47.31403v200.79304h-55.7398L337.5419,411.55705v137.71743h-47.31402v-200.79304" transform="matrix(0-1-1 0 830.816074 824.163399)"/></g></g></svg>
