<svg id="ePrHBa1ELQx1" xmlns="http://www.w3.org/2000/svg" xmlns:xlink="http://www.w3.org/1999/xlink" viewBox="0 0 143.653992 34.279541" shape-rendering="geometricPrecision" text-rendering="geometricPrecision"><defs><linearGradient id="ePrHBa1ELQx8-fill" x1="0" y1="0.000027" x2="350" y2="300.000057" spreadMethod="pad" gradientUnits="userSpaceOnUse" gradientTransform="translate(0 0)"><stop id="ePrHBa1ELQx8-fill-0" offset="0%" stop-color="#fff"/><stop id="ePrHBa1ELQx8-fill-1" offset="100%" stop-color="#c3c3c3"/></linearGradient><linearGradient id="ePrHBa1ELQx9-fill" x1="330" y1="279.999996" x2="0" y2="-0.000034" spreadMethod="pad" gradientUnits="userSpaceOnUse" gradientTransform="translate(0 0)"><stop id="ePrHBa1ELQx9-fill-0" offset="0%" stop-color="#767676"/><stop id="ePrHBa1ELQx9-fill-1" offset="100%" stop-color="#d4d4d4"/></linearGradient><linearGradient id="ePrHBa1ELQx10-fill" x1="-0.000006" y1="0.00009" x2="289.999993" y2="240.000175" spreadMethod="pad" gradientUnits="userSpaceOnUse" gradientTransform="translate(0 0)"><stop id="ePrHBa1ELQx10-fill-0" offset="0%" stop-color="#767676"/><stop id="ePrHBa1ELQx10-fill-1" offset="100%" stop-color="#d4d4d4"/></linearGradient></defs><g transform="translate(-120.449738-504.329407)"><g><g transform="matrix(.452805 0 0 0.452805 64.941727 297.059235)"><g transform="translate(-97.358978-49.862263)"><g transform="matrix(.183295 0 0 0.183295 192.810089 471.615692)"><rect width="370" height="320" rx="39.583015" ry="39.583015" transform="translate(190.94165 289.389923)" fill="#434343"/><rect width="350" height="300.000031" rx="37.109081" ry="37.109081" transform="translate(200.94165 299.389893)" fill="url(#ePrHBa1ELQx8-fill)"/><rect width="330" height="279.999969" rx="34.635136" ry="34.635136" transform="translate(210.94165 309.389954)" fill="url(#ePrHBa1ELQx9-fill)"/><rect width="290" height="240.000031" rx="29.687262" ry="29.687262" transform="translate(230.94165 329.389923)" fill="url(#ePrHBa1ELQx10-fill)"/><rect width="270" height="219.999969" rx="27.213316" ry="27.213316" transform="translate(240.94165 339.389954)"/><g transform="matrix(-1 0 0-1 751.883301 898.779846)"><path d="M268.15497,339.38992h215.57336c15.07618,0,27.21332,12.13714,27.21332,27.21332c0,22.7867,0,32.7867,0,42.7867h-270v-42.7867c0-15.07618,12.13714-27.21332,27.21332-27.21332Z" fill="#ff0"/><path d="M483.72833,559.38994h-215.57336c-15.07618,0-27.21332-12.13714-27.21332-27.21332c0-22.7867,0-42.7867,0-52.7867h270v52.7867c0,15.07618-12.13714,27.21332-27.21332,27.21332Z" fill="#f00"/><rect width="270" height="70" rx="0" ry="0" transform="translate(240.94165 409.389938)" fill="#ff8500"/></g><path d="M297.87524,359.38994h49.96768l63.09873,123.45615v-123.45615h42.41444v180h-49.96769L340.28968,415.93378v123.45616h-42.41444v-180" transform="matrix(0 1 1 0-73.774292 73.774292)"/></g><g transform="translate(0 4.021768)"><path d="M404.31682,542.15876v3.50698q-1.57209-.8062-3.26512-1.2093t-3.50698-.40311q-2.76124,0-4.15194.84652-1.37055.84651-1.37055,2.53953q0,1.28993.9876,2.03567.9876.72558,3.97055,1.3907l1.26977.28217q3.95039.84651,5.6031,2.39845q1.67288,1.53178,1.67288,4.29303q0,3.14419-2.49923,4.9783-2.47908,1.83411-6.83257,1.83411-1.81395,0-3.78915-.36279-1.95504-.34264-4.13179-1.04807v-3.82946q2.05582,1.06822,4.05117,1.61241q1.99535.52403,3.95039.52403q2.62016,0,4.03101-.88682q1.41086-.90698,1.41086-2.53954q0-1.51163-1.02791-2.31783-1.00775-.80621-4.45427-1.55194l-1.28992-.30233q-3.44652-.72558-4.9783-2.21706-1.53179-1.51163-1.53179-4.13178q0-3.1845,2.25737-4.91784t6.40931-1.73334q2.05582,0,3.86977.30233t3.34574.90698Z" fill="#f0f"/><path d="M415.11993,535.08433v6.40931h7.63877v2.88218h-7.63877v12.25427q0,2.76125.74574,3.54729.76589.78605,3.08372.78605h3.80931v3.10388h-3.80931q-4.29302,0-5.92558-1.59225-1.63256-1.6124-1.63256-5.84497v-12.25427h-2.72094v-2.88218h2.72094v-6.40931h3.72868Z" fill="#f0f"/><path d="M437.9153,552.72001q-4.49458,0-6.22791,1.02791t-1.73334,3.50698q0,1.9752,1.28993,3.14419q1.31008,1.14884,3.54729,1.14884q3.08372,0,4.93799-2.17675q1.87442-2.1969,1.87442-5.82481v-.82636h-3.68838Zm7.39691-1.53178v12.87908h-3.70853v-3.42636q-1.26977,2.05582-3.16434,3.04342-1.89458.96744-4.63567.96744-3.46667,0-5.52249-1.93489-2.03566-1.95504-2.03566-5.22016q0-3.80931,2.53954-5.74419q2.55969-1.93489,7.61861-1.93489h5.20001v-.36279q0-2.55969-1.69302-3.95039-1.67288-1.41086-4.71629-1.41086-1.93489,0-3.769.46357t-3.52713,1.3907v-3.42636q2.03566-.78605,3.95039-1.16899q1.91473-.40311,3.72869-.40311q4.89768,0,7.31628,2.53954t2.41861,7.69924Z" fill="#f0f"/><path d="M470.54635,545.82698q1.3907-2.49923,3.32559-3.68838t4.55504-1.18915q3.52714,0,5.44187,2.47908q1.91473,2.45891,1.91473,7.01396v13.62482h-3.72869v-13.50389q0-3.24497-1.14884-4.81706t-3.50698-1.5721q-2.88217,0-4.55504,1.91474t-1.67287,5.22016v12.75815h-3.72869v-13.50389q0-3.26512-1.14884-4.81706-1.14884-1.5721-3.54729-1.5721-2.84186,0-4.51473,1.93489-1.67287,1.91473-1.67287,5.20001v12.75815h-3.72869v-22.57367h3.72869v3.50698q1.26977-2.07597,3.04341-3.06357t4.21241-.9876q2.45892,0,4.1721,1.24962q1.73333,1.24961,2.55969,3.62791Z" fill="#f0f"/><path d="M501.94794,544.09364q-2.98295,0-4.71628,2.33799-1.73334,2.31783-1.73334,6.369t1.71318,6.38916q1.73334,2.31783,4.73644,2.31783q2.96279,0,4.69613-2.33799t1.73333-6.369q0-4.01086-1.73333-6.34884-1.73334-2.35815-4.69613-2.35815Zm0-3.14419q4.83721,0,7.59846,3.14419t2.76124,8.70699q0,5.54264-2.76124,8.70699-2.76125,3.14419-7.59846,3.14419-4.85737,0-7.61861-3.14419-2.74109-3.16435-2.74109-8.70699q0-5.5628,2.74109-8.70699q2.76124-3.14419,7.61861-3.14419Z" fill="#f0f"/><path d="M537.19915,550.44249v13.62482h-3.70853v-13.50389q0-3.20466-1.24961-4.79691t-3.74884-1.59225q-3.00311,0-4.73644,1.91474t-1.73334,5.22016v12.75815h-3.72869v-22.57367h3.72869v3.50698q1.33023-2.03566,3.12403-3.04341q1.81396-1.00776,4.1721-1.00776q3.88993,0,5.88528,2.41861q1.99535,2.39845,1.99535,7.07443Z" transform="translate(.36175 0)" fill="#f0f"/><path d="M537.19915,550.44249v13.62482h-3.70853v-13.50389q0-3.20466-1.24961-4.79691t-3.74884-1.59225q-3.00311,0-4.73644,1.91474t-1.73334,5.22016v12.75815h-3.72869v-22.57367h3.72869v3.50698q1.33023-2.03566,3.12403-3.04341q1.81396-1.00776,4.1721-1.00776q3.88993,0,5.88528,2.41861q1.99535,2.39845,1.99535,7.07443Z" transform="translate(.36175 0)" fill="#f0f"/><path d="M470.54635,545.82698q1.3907-2.49923,3.32559-3.68838t4.55504-1.18915q3.52714,0,5.44187,2.47908q1.91473,2.45891,1.91473,7.01396v13.62482h-3.72869v-13.50389q0-3.24497-1.14884-4.81706t-3.50698-1.5721q-2.88217,0-4.55504,1.91474t-1.67287,5.22016v12.75815h-3.72869v-13.50389q0-3.26512-1.14884-4.81706-1.14884-1.5721-3.54729-1.5721-2.84186,0-4.51473,1.93489-1.67287,1.91473-1.67287,5.20001v12.75815h-3.72869v-22.57367h3.72869v3.50698q1.26977-2.07597,3.04341-3.06357t4.21241-.9876q2.45892,0,4.1721,1.24962q1.73333,1.24961,2.55969,3.62791Z" transform="translate(-123.996793 0)" fill="#f0f"/><path d="M537.19915,550.44249v13.62482h-3.70853v-13.50389q0-3.20466-1.24961-4.79691t-3.74884-1.59225q-3.00311,0-4.73644,1.91474t-1.73334,5.22016v12.75815h-3.72869v-26.933111h3.72869v7.866421q1.33023-2.03566,3.12403-3.04341q1.81396-1.00776,4.1721-1.00776q3.88993,0,5.88528,2.41861q1.99535,2.39845,1.99535,7.07443Z" transform="translate(-152.636399 0)" fill="#f0f"/><path d="M404.31682,542.15876v3.50698q-1.57209-.8062-3.26512-1.2093t-3.50698-.40311q-2.76124,0-4.15194.84652-1.37055.84651-1.37055,2.53953q0,1.28993.9876,2.03567.9876.72558,3.97055,1.3907l1.26977.28217q3.95039.84651,5.6031,2.39845q1.67288,1.53178,1.67288,4.29303q0,3.14419-2.49923,4.9783-2.47908,1.83411-6.83257,1.83411-1.81395,0-3.78915-.36279-1.95504-.34264-4.13179-1.04807v-3.82946q2.05582,1.06822,4.05117,1.61241q1.99535.52403,3.95039.52403q2.62016,0,4.03101-.88682q1.41086-.90698,1.41086-2.53954q0-1.51163-1.02791-2.31783-1.00775-.80621-4.45427-1.55194l-1.28992-.30233q-3.44652-.72558-4.9783-2.21706-1.53179-1.51163-1.53179-4.13178q0-3.1845,2.25737-4.91784t6.40931-1.73334q2.05582,0,3.86977.30233t3.34574.90698Z" transform="translate(-79.999765 0)" fill="#f0f"/></g></g></g></g></g></svg>
